<?xml version="1.0" encoding="UTF-8"?>
<svg width="16px" height="16px" viewBox="0 0 16 16" version="1.1" xmlns="http://www.w3.org/2000/svg" xmlns:xlink="http://www.w3.org/1999/xlink">
    <!-- Generator: Sketch 52.3 (67297) - http://www.bohemiancoding.com/sketch -->
    <title>1115加载中</title>
    <desc>Created with Sketch.</desc>
    <g id="游戏" stroke="none" stroke-width="1" fill="none" fill-rule="evenodd">
        <g id="迷宫1920分辨率-copy" transform="translate(-1850.000000, -451.000000)">
            <g id="1115加载中" transform="translate(1850.000000, 451.000000)">
                <rect id="矩形" fill="#000000" opacity="0" x="0" y="0" width="16" height="16"></rect>
                <path d="M4,8.02221875 C4,8.2444375 3.8,8.4444375 3.57778125,8.4444375 L0.42221875,8.4444375 C0.17778125,8.4444375 0,8.2444375 0,8.02221875 L0,8 C0,7.7555625 0.2,7.57778125 0.42221875,7.57778125 L3.57778125,7.57778125 C3.8,7.5555625 4,7.7555625 4,7.97778125 L4,8.02221875 Z M16,8.02221875 C16,8.26667188 15.8,8.4444375 15.5777812,8.4444375 L12.4222188,8.4444375 C12.1777813,8.4444375 12,8.2444375 12,8.02221875 L12,8 C12,7.7555625 12.2,7.57778125 12.4222188,7.57778125 L15.5555625,7.57778125 C15.8,7.57778125 15.9777813,7.77778125 15.9777813,8 L16,8.02221875 Z M8.4444375,3.57778125 C8.4444375,3.8 8.2444375,4 8.02221875,4 L8,4 C7.7555625,4 7.5555625,3.8 7.5555625,3.57778125 L7.5555625,0.42221875 C7.5555625,0.17778125 7.7555625,0 7.97778125,0 L8,0 C8.2444375,0 8.42221875,0.2 8.42221875,0.42221875 L8.42221875,3.57778125 L8.4444375,3.57778125 Z M8.4444375,15.5777812 C8.4444375,15.8222187 8.2444375,16 8.02221875,16 L8,16 C7.7555625,16 7.57778125,15.8 7.57778125,15.5777812 L7.57778125,12.4222188 C7.57778125,12.1777813 7.77778125,12 8,12 L8.02221875,12 C8.26667188,12 8.4444375,12.2 8.4444375,12.4222188 L8.4444375,15.5777813 Z M5.1555625,5.17778125 C4.97778125,5.3555625 4.71110938,5.3555625 4.5555625,5.17778125 L2.33332812,2.9555625 C2.1555625,2.77778125 2.1555625,2.51110938 2.33332812,2.3555625 L2.3555625,2.33332812 C2.53332813,2.1555625 2.8,2.1555625 2.9555625,2.33332812 L5.17778125,4.5555625 C5.3555625,4.71110938 5.3555625,5 5.1555625,5.17778125 Z M13.6444375,13.6666719 C13.4666719,13.8444375 13.2,13.8444375 13.0444375,13.6666719 L10.8222187,11.4444375 C10.6444375,11.2666719 10.6444375,11 10.8222187,10.8444375 L10.8444375,10.8222188 C11.0222188,10.6444375 11.2888906,10.6444375 11.4444375,10.8222188 L13.6666719,13.0444375 C13.8444375,13.2 13.8444375,13.4888906 13.6444375,13.6666719 Z M11.4444375,5.17778125 C11.2666719,5.3555625 11,5.3555625 10.8444375,5.17778125 L10.8222187,5.1555625 C10.6444375,4.97778125 10.6444375,4.71110937 10.8222187,4.5555625 L13.0444375,2.33332812 C13.2222187,2.1555625 13.4888906,2.1555625 13.6444375,2.33332812 L13.6666719,2.3555625 C13.8444375,2.53332812 13.8444375,2.8 13.6666719,2.9555625 L11.4444375,5.17778125 Z M2.9555625,13.6666719 C2.77778125,13.8444375 2.51110938,13.8444375 2.3555625,13.6666719 L2.33332812,13.6444375 C2.1555625,13.4666719 2.1555625,13.2 2.33332812,13.0444375 L4.5555625,10.8222188 C4.73332813,10.6444375 5,10.6444375 5.1555625,10.8222188 L5.17778125,10.8444375 C5.3555625,11.0222188 5.3555625,11.2888906 5.17778125,11.4444375 L2.9555625,13.6666719 Z" id="形状" fill="#FFFFFF" fill-rule="nonzero"></path>
            </g>
        </g>
    </g>
</svg>