<?xml version="1.0" encoding="UTF-8"?>
<svg width="32px" height="32px" viewBox="0 0 32 32" version="1.1" xmlns="http://www.w3.org/2000/svg" xmlns:xlink="http://www.w3.org/1999/xlink">
    <!-- Generator: Sketch 52.3 (67297) - http://www.bohemiancoding.com/sketch -->
    <title>iconfont图标_视频回放</title>
    <desc>Created with Sketch.</desc>
    <g id="游戏平台" stroke="none" stroke-width="1" fill="none" fill-rule="evenodd">
        <g id="6ipad游戏列表" transform="translate(-855.000000, -998.000000)">
            <g id="iconfont图标_视频回放" transform="translate(851.000000, 994.000000)">
                <rect id="矩形" fill="#000000" opacity="0" x="0" y="0" width="40" height="40"></rect>
                <path d="M18.8578906,25.7355078 L25.7146875,21.3485547 C26.2083984,21.0332031 26.4900391,20.5406641 26.4900391,20 C26.4900391,19.4592188 26.2055078,18.9699609 25.7146875,18.6546094 L18.8578906,14.264375 C18.5907812,14.0969141 18.3206641,14.0101172 18.0535547,14.0101172 C17.30125,14.0101172 16.7525,14.6860938 16.7525,15.6130469 L16.7525,24.3869531 C16.7525,25.3171875 17.2983984,25.9898828 18.0535547,25.9898828 C18.320625,25.9898828 18.5907812,25.90625 18.8578906,25.7355078 Z" id="路径" fill="#FFFFFF"></path>
                <path d="M20.0001563,4.9609375 C11.7284766,4.9609375 4.96097656,11.7284375 4.96097656,20 C4.95497445,22.6617272 5.67916219,25.2741128 7.05472656,27.5528516 C7.15175781,27.7151953 9.46265625,25.4758984 13.9844531,20.8354297 L8.11914063,19.0975781 C8.5703125,12.7812891 13.6835938,7.96878906 20.1504297,7.96878906 C26.7676563,7.96878906 32.1817578,13.3827734 32.1817578,20 C32.1817578,26.6172266 26.7676563,32.0313281 20.1504297,32.0313281 C17.8946094,32.0313281 15.7891797,31.4296875 13.9844141,30.376875 L11.7284375,32.4823047 C14.1346875,33.9863672 16.9921484,35.0390625 20.0001563,35.0390625 C28.2716016,35.0390625 35.0391016,28.2714453 35.0391016,20 C35.0391016,11.7284375 28.4219922,4.9609375 20.0001563,4.9609375 Z" id="路径" fill="#FFFFFF"></path>
            </g>
        </g>
    </g>
</svg>